<svg width="1433" height="246" viewBox="0 0 1433 246" fill="none" xmlns="http://www.w3.org/2000/svg">
<rect x="-782" y="1" width="3004" height="1" fill="#D7D7D7"/>
<rect x="-782" y="244" width="3004" height="1" fill="#D7D7D7"/>
<rect x="243" y="123" width="695" height="1" fill="#D7D7D7"/>
<rect x="694" y="2" width="122" height="0.999995" transform="rotate(90 694 2)" fill="#D7D7D7"/>
<rect x="938" y="124" width="121" height="0.999995" transform="rotate(90 938 124)" fill="#D7D7D7"/>
<ellipse cx="816" cy="123" rx="122" ry="121" stroke="#D7D7D7"/>
<path d="M-0.116699 1.37109L-0.116699 0.871094H-0.617643L-0.616698 1.37204L-0.116699 1.37109ZM243.998 1.37109H244.498V0.871094H243.998V1.37109ZM243.998 245.018V245.518H244.498V245.018H243.998ZM-0.116699 1.87109L243.998 1.87109V0.871094L-0.116699 0.871094L-0.116699 1.87109ZM243.498 1.37109L243.498 245.018H244.498L244.498 1.37109H243.498ZM243.998 244.518C109.609 244.516 0.636557 135.699 0.3833 1.37015L-0.616698 1.37204C-0.362401 136.253 109.057 245.516 243.998 245.518V244.518Z" fill="#D7D7D7"/>
<mask id="mask0_1609_533" style="mask-type:alpha" maskUnits="userSpaceOnUse" x="972" y="1" width="468" height="243">
<rect x="972" y="1" width="468" height="243" fill="#D9D9D9"/>
</mask>
<g mask="url(#mask0_1609_533)">
<path d="M877 607.931V608.431H876.499L876.5 607.93L877 607.931ZM1486.11 607.931H1486.61V608.431H1486.11V607.931ZM1486.11 0.000183105V-0.499817H1486.61V0.000183105H1486.11ZM877 607.431L1486.11 607.431V608.431L877 608.431V607.431ZM1485.61 607.931V0.000183105H1486.61V607.931H1485.61ZM1486.11 0.500183C1486.11 0.500183 1486.11 0.500183 1486.11 0.500183H1486.11C1486.11 0.500183 1486.11 0.500183 1486.11 0.500183H1486.11C1486.11 0.500183 1486.11 0.500183 1486.11 0.500183C1486.11 0.500183 1486.11 0.500183 1486.11 0.500183H1486.11C1486.11 0.500183 1486.11 0.500183 1486.1 0.500183C1486.1 0.500183 1486.1 0.500183 1486.1 0.500183H1486.1C1486.1 0.500183 1486.1 0.500183 1486.1 0.500183H1486.1C1486.1 0.500183 1486.1 0.500183 1486.1 0.500183C1486.1 0.500183 1486.1 0.500183 1486.1 0.500183H1486.1C1486.1 0.500183 1486.1 0.500183 1486.1 0.500183C1486.1 0.500183 1486.1 0.500183 1486.1 0.500183C1486.1 0.500183 1486.1 0.500183 1486.1 0.500183C1486.1 0.500183 1486.1 0.500183 1486.1 0.500183H1486.1C1486.1 0.500183 1486.1 0.500183 1486.1 0.500183V-0.499817C1486.1 -0.499817 1486.1 -0.499817 1486.1 -0.499817H1486.1C1486.1 -0.499817 1486.1 -0.499817 1486.1 -0.499817C1486.1 -0.499817 1486.1 -0.499817 1486.1 -0.499817C1486.1 -0.499817 1486.1 -0.499817 1486.1 -0.499817C1486.1 -0.499817 1486.1 -0.499817 1486.1 -0.499817H1486.1C1486.1 -0.499817 1486.1 -0.499817 1486.1 -0.499817C1486.1 -0.499817 1486.1 -0.499817 1486.1 -0.499817H1486.1C1486.1 -0.499817 1486.1 -0.499817 1486.1 -0.499817H1486.1C1486.1 -0.499817 1486.1 -0.499817 1486.1 -0.499817C1486.11 -0.499817 1486.11 -0.499817 1486.11 -0.499817H1486.11C1486.11 -0.499817 1486.11 -0.499817 1486.11 -0.499817C1486.11 -0.499817 1486.11 -0.499817 1486.11 -0.499817H1486.11C1486.11 -0.499817 1486.11 -0.499817 1486.11 -0.499817H1486.11C1486.11 -0.499817 1486.11 -0.499817 1486.11 -0.499817V0.500183ZM1486.1 0.500183C1150.37 0.500183 878.134 272.348 877.5 607.932L876.5 607.93C877.135 271.795 1149.82 -0.499817 1486.1 -0.499817V0.500183Z" fill="#D7D7D7"/>
</g>
</svg>
