<svg width="375" height="246" viewBox="0 0 375 246" fill="none" xmlns="http://www.w3.org/2000/svg">
<rect x="-1981" y="1" width="3770" height="1" fill="#D7D7D7"/>
<rect x="-1981" y="244" width="3770" height="1" fill="#D7D7D7"/>
<rect x="-573" y="123" width="695" height="1" fill="#D7D7D7"/>
<rect x="122" y="124" width="121" height="0.999995" transform="rotate(90 122 124)" fill="#D7D7D7"/>
<ellipse cy="123" rx="122" ry="121" stroke="#D7D7D7"/>
<mask id="mask0_1721_593" style="mask-type:alpha" maskUnits="userSpaceOnUse" x="156" y="1" width="468" height="243">
<rect x="156" y="1" width="468" height="243" fill="#D9D9D9"/>
</mask>
<g mask="url(#mask0_1721_593)">
<path d="M61 607.931V608.431H60.4991L60.5 607.93L61 607.931ZM670.105 607.931H670.605V608.431H670.105V607.931ZM670.105 0.000183105V-0.499817H670.605V0.000183105H670.105ZM61 607.431L670.105 607.431V608.431L61 608.431V607.431ZM669.605 607.931L669.605 0.000183105H670.605L670.605 607.931H669.605ZM670.105 0.500183C670.105 0.500183 670.105 0.500183 670.105 0.500183H670.105C670.105 0.500183 670.105 0.500183 670.105 0.500183H670.105C670.105 0.500183 670.105 0.500183 670.105 0.500183C670.105 0.500183 670.105 0.500183 670.105 0.500183H670.105C670.105 0.500183 670.105 0.500183 670.105 0.500183C670.105 0.500183 670.105 0.500183 670.105 0.500183H670.105C670.105 0.500183 670.105 0.500183 670.105 0.500183H670.105C670.105 0.500183 670.105 0.500183 670.105 0.500183C670.105 0.500183 670.105 0.500183 670.105 0.500183H670.105C670.105 0.500183 670.105 0.500183 670.104 0.500183C670.104 0.500183 670.104 0.500183 670.104 0.500183C670.104 0.500183 670.104 0.500183 670.104 0.500183C670.104 0.500183 670.104 0.500183 670.104 0.500183H670.104C670.104 0.500183 670.104 0.500183 670.104 0.500183V-0.499817C670.104 -0.499817 670.104 -0.499817 670.104 -0.499817H670.104C670.104 -0.499817 670.104 -0.499817 670.104 -0.499817C670.104 -0.499817 670.104 -0.499817 670.104 -0.499817C670.104 -0.499817 670.104 -0.499817 670.104 -0.499817C670.105 -0.499817 670.105 -0.499817 670.105 -0.499817H670.105C670.105 -0.499817 670.105 -0.499817 670.105 -0.499817C670.105 -0.499817 670.105 -0.499817 670.105 -0.499817H670.105C670.105 -0.499817 670.105 -0.499817 670.105 -0.499817H670.105C670.105 -0.499817 670.105 -0.499817 670.105 -0.499817C670.105 -0.499817 670.105 -0.499817 670.105 -0.499817H670.105C670.105 -0.499817 670.105 -0.499817 670.105 -0.499817C670.105 -0.499817 670.105 -0.499817 670.105 -0.499817H670.105C670.105 -0.499817 670.105 -0.499817 670.105 -0.499817H670.105C670.105 -0.499817 670.105 -0.499817 670.105 -0.499817V0.500183ZM670.104 0.500183C334.372 0.500183 62.1335 272.348 61.5 607.932L60.5 607.93C61.1346 271.795 333.82 -0.499817 670.104 -0.499817V0.500183Z" fill="#D7D7D7"/>
</g>
</svg>
