<svg width="162" height="26" viewBox="0 0 162 26" fill="none" xmlns="http://www.w3.org/2000/svg">
<path d="M7.76504 25.2343V2.65624H0V0H17.9209V2.65624H10.1552V25.2343H7.76504Z" fill="#3D3745"/>
<path d="M20.3086 25.2343V0H27.4769V1.99218H22.698V12.2564H26.8796V14.3084H22.698V23.2421H27.4769V25.2343H20.3086Z" fill="#3D3745"/>
<path d="M100.355 25.2343V0H109.913V1.99218H102.745V12.2767H109.117V14.2974H102.745V23.2421H109.913V25.2343H100.355Z" fill="#3D3745"/>
<path d="M61.6245 7.34641C61.6245 9.00593 61.2524 10.4529 60.5081 11.6875C59.7638 12.922 58.484 14.1236 57.2132 14.6093L62.7273 25.2343H59.8273L54.4562 14.6625H50.8686V25.2343H48.3906V0H55.2254C57.0952 0 58.6292 0.688094 59.8273 2.06428C61.0254 3.44047 61.6245 5.20118 61.6245 7.34641ZM50.8686 2.48928V12.1732H55.0893C56.2692 12.1732 57.2404 11.7178 58.0029 10.8071C58.7653 9.8964 59.1466 8.74283 59.1466 7.34641C59.1466 5.92975 58.7653 4.76606 58.0029 3.85535C57.2404 2.94464 56.2692 2.48928 55.0893 2.48928H50.8686Z" fill="#3D3745"/>
<path d="M140.569 7.34641C140.569 9.00593 140.227 10.4529 139.545 11.6875C138.863 12.922 137.69 14.1236 136.525 14.6093L141.579 25.2343H138.921L133.998 14.6625H130.709V25.2343H128.438V0H134.703C136.417 0 137.823 0.688094 138.921 2.06428C140.019 3.44047 140.569 5.20118 140.569 7.34641ZM130.709 2.48928V12.1732H134.578C135.66 12.1732 136.55 11.7178 137.249 10.8071C137.948 9.8964 138.297 8.74283 138.297 7.34641C138.297 5.92975 137.948 4.76606 137.249 3.85535C136.55 2.94464 135.66 2.48928 134.578 2.48928H130.709Z" fill="#3D3745"/>
<path d="M43.7026 7.34641C43.7026 9.00593 43.3305 10.4529 42.5862 11.6875C41.8419 12.922 40.5621 14.1236 39.2913 14.6093L44.8055 25.2343H41.9054L36.5343 14.6625H32.9467V25.2343H30.4688V0H37.3035C39.1733 0 40.7073 0.688094 41.9054 2.06428C43.1036 3.44047 43.7026 5.20118 43.7026 7.34641ZM32.9467 2.48928V12.1732H37.1674C38.3474 12.1732 39.3186 11.7178 40.081 10.8071C40.8435 9.8964 41.2247 8.74283 41.2247 7.34641C41.2247 5.92975 40.8435 4.76606 40.081 3.85535C39.3186 2.94464 38.3474 2.48928 37.1674 2.48928H32.9467Z" fill="#3D3745"/>
<path d="M125.029 7.34641C125.029 9.00593 124.688 10.4529 124.006 11.6875C123.324 12.922 122.151 14.1236 120.986 14.6093L126.04 25.2343H123.382L118.459 14.6625H115.17V25.2343H112.898V0H119.164C120.878 0 122.284 0.688094 123.382 2.06428C124.48 3.44047 125.029 5.20118 125.029 7.34641ZM115.17 2.48928V12.1732H119.039C120.12 12.1732 121.011 11.7178 121.71 10.8071C122.409 9.8964 122.758 8.74283 122.758 7.34641C122.758 5.92975 122.409 4.76606 121.71 3.85535C121.011 2.94464 120.12 2.48928 119.039 2.48928H115.17Z" fill="#3D3745"/>
<path d="M80.0003 25.2343L77.6576 17.9296H69.2945L66.9518 25.2343H64.5156L72.4582 0H74.4939L82.4365 25.2343H80.0003ZM69.962 15.7307H77.0235L73.4594 3.28046L69.962 15.7307Z" fill="#3D3745"/>
<path d="M158.852 25.2343L156.509 17.9296H148.146L145.803 25.2343H143.367L151.31 0H153.345L161.288 25.2343H158.852ZM148.814 15.7307H155.875L152.311 3.28046L148.814 15.7307Z" fill="#3D3745"/>
<path d="M90.2031 25.2343V0H97.3715V1.99218H92.5926V12.2866H97.3715V14.2836H92.5926V25.2343H90.2031Z" fill="#3D3745"/>
</svg>
