<svg width="1440" height="806" viewBox="0 0 1440 806" fill="none" xmlns="http://www.w3.org/2000/svg">
<rect width="3000" height="1" transform="matrix(-1 0 0 1 2220 330)" fill="#D7D7D7"/>
<rect width="1565" height="1" transform="matrix(-1 0 0 1 368 535)" fill="#D7D7D7"/>
<rect width="329" height="1.00001" transform="matrix(4.37114e-08 -1 -1 -4.37114e-08 953 330)" fill="#D7D7D7"/>
<rect x="368" y="805" width="474" height="0.999979" transform="rotate(-90 368 805)" fill="#D7D7D7"/>
<ellipse cx="164" cy="164.5" rx="164" ry="164.5" transform="matrix(-1 0 0 1 1281 1)" stroke="#D7D7D7"/>
<path d="M952.836 331L952.336 331L952.336 330.499L952.837 330.5L952.836 331ZM952.836 805L952.836 805.5L952.336 805.5L952.336 805L952.836 805ZM1440.21 805L1440.71 804.999L1440.71 805.5L1440.21 805.5L1440.21 805ZM953.336 331L953.336 805L952.336 805L952.336 331L953.336 331ZM952.836 804.5L1440.21 804.5L1440.21 805.5L952.836 805.5L952.836 804.5ZM1439.71 805.001C1439.16 543.65 1221.47 331.882 952.835 331.5L952.837 330.5C1221.99 330.883 1440.16 543.072 1440.71 804.999L1439.71 805.001Z" fill="#D7D7D7"/>
</svg>
