<svg width="479" height="573" viewBox="0 0 479 573" fill="none" xmlns="http://www.w3.org/2000/svg">
<rect x="478" y="572" width="242" height="1.00001" transform="rotate(-90 478 572)" fill="#D7D7D7"/>
<ellipse cx="356" cy="451" rx="122" ry="121" stroke="#D7D7D7"/>
<path d="M0.00188151 572.251L-0.498114 572.249L-0.500135 572.751L0.00188149 572.751L0.00188151 572.251ZM233.783 330.181L234.283 330.181L234.283 329.661L233.764 329.681L233.783 330.181ZM233.783 572.251L233.783 572.751L234.283 572.751L234.283 572.251L233.783 572.251ZM0.501877 572.253C1.02705 441.806 104.444 335.631 233.802 330.68L233.764 329.681C103.872 334.653 0.0292187 441.264 -0.498114 572.249L0.501877 572.253ZM233.283 330.181L233.283 572.251L234.283 572.251L234.283 330.181L233.283 330.181ZM233.783 571.751L0.00188153 571.751L0.00188149 572.751L233.783 572.751L233.783 571.751Z" fill="#D7D7D7"/>
<rect x="233" y="329" width="329" height="1.00001" transform="rotate(-90 233 329)" fill="#D7D7D7"/>
<rect x="478" y="330" width="329" height="1.00001" transform="rotate(-90 478 330)" fill="#D7D7D7"/>
<rect x="478" y="330" width="244" height="1.00002" transform="rotate(180 478 330)" fill="#D7D7D7"/>
</svg>
