<svg width="479" height="573" viewBox="0 0 479 573" fill="none" xmlns="http://www.w3.org/2000/svg">
<ellipse cx="356" cy="451" rx="122" ry="121" stroke="#D7D7D7"/>
<path d="M-8.99964 572.251L-9.49964 572.251L-9.49964 572.751L-8.99964 572.751L-8.99964 572.251ZM233.783 329L234.283 329L234.283 328.499L233.782 328.5L233.783 329ZM233.783 572.251L233.783 572.751L234.283 572.751L234.283 572.251L233.783 572.251ZM-8.49964 572.251C-8.49964 438.339 99.9312 329.753 233.784 329.5L233.782 328.5C99.3779 328.754 -9.49964 437.788 -9.49964 572.251L-8.49964 572.251ZM233.283 329L233.283 572.251L234.283 572.251L234.283 329L233.283 329ZM233.783 571.751L-8.99964 571.751L-8.99964 572.751L233.783 572.751L233.783 571.751Z" fill="#D7D7D7"/>
<rect x="233" y="329" width="329" height="1.00001" transform="rotate(-90 233 329)" fill="#D7D7D7"/>
<rect x="478" y="330" width="329" height="1.00001" transform="rotate(-90 478 330)" fill="#D7D7D7"/>
<rect x="478" y="330" width="244" height="1.00002" transform="rotate(180 478 330)" fill="#D7D7D7"/>
</svg>
