<svg width="488" height="806" viewBox="0 0 488 806" fill="none" xmlns="http://www.w3.org/2000/svg">
<ellipse cx="164" cy="164.5" rx="164" ry="164.5" transform="matrix(-1 0 0 1 329 1)" stroke="#D7D7D7"/>
<path d="M0.835938 331L0.335938 331L0.335937 330.499L0.83665 330.5L0.835938 331ZM0.835958 805L0.835958 805.5L0.335958 805.5L0.335958 805L0.835958 805ZM488.21 805L488.71 804.999L488.711 805.5L488.21 805.5L488.21 805ZM1.33594 331L1.33596 805L0.335958 805L0.335938 331L1.33594 331ZM0.835958 804.5L488.21 804.5L488.21 805.5L0.835958 805.5L0.835958 804.5ZM487.71 805.001C487.157 543.65 269.468 331.882 0.835225 331.5L0.83665 330.5C269.995 330.883 488.156 543.072 488.71 804.999L487.71 805.001Z" fill="#D7D7D7"/>
</svg>
