<svg width="16" height="18" viewBox="0 0 16 18" fill="none" xmlns="http://www.w3.org/2000/svg">
<path d="M1.41183 4.44475e-05C0.63764 4.44475e-05 0 0.609787 0 1.35011V16.6499C0 17.3903 0.63764 18 1.41183 18L14.5882 17.9998C15.3624 17.9998 16 17.3901 16 16.6498L15.9998 4.94991C15.9998 4.83063 15.9503 4.71622 15.862 4.63178L11.1561 0.131832C11.068 0.0473941 10.9484 0 10.8235 0L1.41183 4.44475e-05ZM1.41183 0.899954H10.3529V4.04984C10.3529 4.79016 10.9906 5.3999 11.7648 5.3999H15.0588V16.6498C15.0588 16.9036 14.8536 17.0997 14.5882 17.0997L1.41188 17.0999C1.14648 17.0999 0.941334 16.9037 0.941334 16.6499V1.35011C0.941334 1.09632 1.14649 0.900151 1.41188 0.900151L1.41183 0.899954ZM11.2941 1.53621L14.3933 4.49983L11.7648 4.49999C11.4994 4.49999 11.2943 4.30381 11.2943 4.05003L11.2941 1.53621ZM4.00004 4.49983L4.00021 4.49999C3.8753 4.49999 3.75566 4.54739 3.66736 4.63182C3.57922 4.7161 3.52966 4.83067 3.52966 4.94995C3.52966 5.06939 3.57922 5.1838 3.66736 5.26824C3.75566 5.35252 3.8753 5.39991 4.00021 5.39991H8.23546C8.49527 5.39991 8.706 5.19855 8.706 4.94996C8.706 4.83068 8.65643 4.71611 8.56813 4.63183C8.47983 4.54739 8.36019 4.5 8.23545 4.5L4.00004 4.49983ZM4.00004 7.19976L4.00021 7.19992C3.8753 7.19992 3.75566 7.24732 3.66736 7.33175C3.57922 7.41619 3.52966 7.5306 3.52966 7.64988C3.52966 7.76932 3.57922 7.88373 3.66736 7.96817C3.75566 8.05261 3.8753 8.1 4.00021 8.1H12.0001C12.125 8.1 12.2447 8.0526 12.333 7.96817C12.4211 7.88373 12.4707 7.76932 12.4707 7.64988C12.4707 7.5306 12.4211 7.41619 12.333 7.33175C12.2447 7.24731 12.125 7.19992 12.0001 7.19992L4.00004 7.19976ZM4.00004 9.89969L4.00021 9.89985C3.8753 9.89985 3.75566 9.94725 3.66736 10.0317C3.57922 10.1161 3.52966 10.2305 3.52966 10.35C3.52966 10.4692 3.57922 10.5837 3.66736 10.6681C3.75566 10.7525 3.8753 10.7999 4.00021 10.7999H12.0001C12.125 10.7999 12.2447 10.7525 12.333 10.6681C12.4211 10.5837 12.4707 10.4692 12.4707 10.35C12.4707 10.2305 12.4211 10.1161 12.333 10.0317C12.2447 9.94724 12.125 9.89985 12.0001 9.89985L4.00004 9.89969ZM4.00004 12.5996L4.00021 12.5999C3.8753 12.5999 3.75566 12.6473 3.66736 12.7316C3.57922 12.816 3.52966 12.9305 3.52966 13.0499C3.52966 13.1692 3.57922 13.2837 3.66736 13.368C3.75566 13.4525 3.8753 13.4999 4.00021 13.4999H12.0001C12.125 13.4999 12.2447 13.4525 12.333 13.368C12.4211 13.2837 12.4707 13.1692 12.4707 13.0499C12.4707 12.9305 12.4211 12.816 12.333 12.7316C12.2447 12.6473 12.125 12.5999 12.0001 12.5999L4.00004 12.5996Z" fill="#3D3745"/>
</svg>
