<svg width="34" height="34" viewBox="0 0 34 34" fill="none" xmlns="http://www.w3.org/2000/svg">
<path fill-rule="evenodd" clip-rule="evenodd" d="M17 0C7.61116 0 0 7.61116 0 17C0 26.3888 7.61116 34 17 34V32C8.71573 32 2 25.2843 2 17C2 8.71573 8.71573 2 17 2V0Z" fill="#F27C4F"/>
<path fill-rule="evenodd" clip-rule="evenodd" d="M34 0C24.6112 0 17 7.61116 17 17C17 26.3888 24.6112 34 34 34V32C25.7157 32 19 25.2843 19 17C19 8.71573 25.7157 2 34 2V0Z" fill="#F27C4F"/>
<path fill-rule="evenodd" clip-rule="evenodd" d="M0 34C9.38884 34 17 26.3888 17 17C17 7.61116 9.38884 -6.65389e-07 2.97237e-06 -1.48619e-06L2.79753e-06 2C8.28427 2 15 8.71573 15 17C15 25.2843 8.28427 32 1.74846e-07 32L0 34Z" fill="#F27C4F"/>
<path fill-rule="evenodd" clip-rule="evenodd" d="M17 34C26.3888 34 34 26.3888 34 17C34 7.61116 26.3888 -6.65389e-07 17 -1.48619e-06L17 2C25.2843 2 32 8.71573 32 17C32 25.2843 25.2843 32 17 32L17 34Z" fill="#F27C4F"/>
</svg>
